# xmcd
#
# Track frame offsets:
#	150
#	14023
#	25076
#	36096
#	45196
#	51748
#	61816
#	75578
#	84446
#	93063
#	99180
#	105056
#	115959
#	130140
#	140551
#	150036
#	160712
#	167907
#	175687
#	179058
#	204293
#	222611
#	235931
#	258795
#	273161
#	285992
#	290840
#	297600
#
# Disc length: 4206 seconds
#
# Revision: 0
# Processed by: cddbd v1.5.2PL0 Copyright (c) Steve Scherf et al.
# Submitted via: EasyCDDAExtractor 16.0.1.1
#
DISCID=79106c1c
DTITLE=Dick Curless - A Tombstone Every Mile [CD7]
DYEAR=1900
DGENRE=Country
TTITLE0=Dick Curless - China Nights
TTITLE1=Dick Curless - The Golden Rocket
TTITLE2=Dick Curless - Just A Closer Walk With Thee
TTITLE3=Dick Curless - I'm In Love Again
TTITLE4=Dick Curless - I Walk The Line
TTITLE5=Dick Curless - Something's Wrong With You
TTITLE6=Dick Curless - China Nights
TTITLE7=Dick Curless - Evil Hearted Man Blues
TTITLE8=Dick Curless - Marianne
TTITLE9=Dick Curless - Blues In My Mind
TTITLE10=Dick Curless - Down By The Riverside
TTITLE11=Dick Curless - Oh, Lonesome Me
TTITLE12=Dick Curless - Where Is Your Heart Tonight
TTITLE13=Dick Curless - I Can Get Along Without You Now
TTITLE14=Dick Curless - Nine Pound Hammer No  2
TTITLE15=Dick Curless - What Do I Care
TTITLE16=Dick Curless - There's Been A Change In Me
TTITLE17=Dick Curless - After All I Ain't Got Much To Lose
TTITLE18=Dick Curless - Sunny Side Of The Mountain
TTITLE19=Dick Curless - Monday Night
TTITLE20=Dick Curless - Nine Pound Hammer
TTITLE21=Dick Curless - China Nights
TTITLE22=Dick Curless - Just A Little Lovin'
TTITLE23=Dick Curless - I Am A Pilgrim
TTITLE24=Dick Curless - Tuck Me To Sleep In My Old Kentucky Home
TTITLE25=Dick Curless - Montreal Express
TTITLE26=Dick Curless - Station Breaks
TTITLE27=Billy D  Hunter - The Tumbleweed Kid (Tribute To Dick Curless)
EXTD=
EXTT0=
EXTT1=
EXTT2=
EXTT3=
EXTT4=
EXTT5=
EXTT6=
EXTT7=
EXTT8=
EXTT9=
EXTT10=
EXTT11=
EXTT12=
EXTT13=
EXTT14=
EXTT15=
EXTT16=
EXTT17=
EXTT18=
EXTT19=
EXTT20=
EXTT21=
EXTT22=
EXTT23=
EXTT24=
EXTT25=
EXTT26=
EXTT27=
PLAYORDER=
